<svg width="21" height="22" viewBox="0 0 21 22" fill="none" xmlns="http://www.w3.org/2000/svg">
<path fill-rule="evenodd" clip-rule="evenodd" d="M3.27566 2.95944L4.36754 -0.316223H6.26491L7.3568 2.95943L10.6325 4.05132V5.94869L7.3568 7.04057L6.26491 10.3162H4.36754L3.27566 7.04057L0 5.94869V4.05132L3.27566 2.95944ZM5.31623 3.16228L5.01491 4.06623L4.38246 4.69869L3.47851 5L4.38246 5.30132L5.01491 5.93378L5.31623 6.83773L5.61754 5.93378L6.25 5.30132L7.15395 5L6.25 4.69869L5.61754 4.06623L5.31623 3.16228ZM16.4052 6.03756C15.9551 6.00079 15.3728 6.00001 14.5162 6.00001H13.3162V4.00001H14.5575C15.3625 4 16.0268 3.99999 16.568 4.04421C17.1301 4.09013 17.6468 4.1887 18.1322 4.43599C18.8848 4.81948 19.4967 5.4314 19.8802 6.18405C20.1275 6.66939 20.2261 7.18609 20.272 7.74819C20.3162 8.28938 20.3162 8.95373 20.3162 9.75869V13.2408C20.3162 14.0457 20.3162 14.7101 20.272 15.2513C20.2261 15.8134 20.1275 16.3301 19.8802 16.8154C19.4967 17.5681 18.8848 18.18 18.1322 18.5635C17.6468 18.8108 17.1301 18.9093 16.568 18.9553C16.0268 18.9995 15.3625 18.9995 14.5575 18.9995H14.3476L12.0755 21.6507L10.5569 21.6507L8.28481 18.9995H8.07489C7.26993 18.9995 6.60558 18.9995 6.06439 18.9553C5.50229 18.9093 4.98559 18.8108 4.50025 18.5635C3.7476 18.18 3.13568 17.5681 2.75219 16.8154C2.5049 16.3301 2.40633 15.8134 2.36041 15.2513C2.31619 14.7101 2.3162 14.0457 2.31621 13.2408L2.31621 12.4997H4.31621V13.1995C4.31621 14.056 4.31699 14.6383 4.35377 15.0884C4.38958 15.5268 4.45451 15.751 4.5342 15.9074C4.72595 16.2838 5.03191 16.5897 5.40823 16.7815C5.56463 16.8612 5.78884 16.9261 6.22725 16.9619C6.67734 16.9987 7.25963 16.9995 8.11621 16.9995H9.20479L11.3162 19.4633L13.4277 16.9995H14.5162C15.3728 16.9995 15.9551 16.9987 16.4052 16.9619C16.8436 16.9261 17.0678 16.8612 17.2242 16.7815C17.6005 16.5897 17.9065 16.2838 18.0982 15.9074C18.1779 15.751 18.2428 15.5268 18.2787 15.0884C18.3154 14.6383 18.3162 14.056 18.3162 13.1995V9.80001C18.3162 8.94343 18.3154 8.36114 18.2787 7.91105C18.2428 7.47264 18.1779 7.24843 18.0982 7.09203C17.9065 6.71571 17.6005 6.40975 17.2242 6.218C17.0678 6.13831 16.8436 6.07338 16.4052 6.03756Z" fill="white"/>
<path fill-rule="evenodd" clip-rule="evenodd" d="M10.0919 10.7757L10.747 8.81027H11.8854L12.5406 10.7757L14.506 11.4308V12.5692L12.5406 13.2243L11.8854 15.1897H10.747L10.0919 13.2243L8.12649 12.5692V11.4308L10.0919 10.7757Z" fill="white"/>
</svg>
