<svg width="18" height="19" viewBox="0 0 18 19" fill="none" xmlns="http://www.w3.org/2000/svg">
<path fill-rule="evenodd" clip-rule="evenodd" d="M5.7587 4.31292e-07H12.2413C13.0463 -1.23241e-05 13.7106 -2.28137e-05 14.2518 0.0441945C14.8139 0.0901197 15.3306 0.188684 15.816 0.435975C16.5686 0.819468 17.1805 1.43139 17.564 2.18404C17.8113 2.66937 17.9099 3.18608 17.9558 3.74818C18 4.28937 18 4.95372 18 5.75868V9.24077C18 10.0457 18 10.7101 17.9558 11.2513C17.9099 11.8134 17.8113 12.3301 17.564 12.8154C17.1805 13.568 16.5686 14.18 15.816 14.5635C15.3306 14.8108 14.8139 14.9093 14.2518 14.9552C13.7106 14.9995 13.0463 14.9995 12.2413 14.9994H12.0314L9 18.5368L5.96859 14.9994H5.75872C4.95374 14.9995 4.28938 14.9995 3.74817 14.9552C3.18608 14.9093 2.66937 14.8108 2.18404 14.5635C1.43139 14.18 0.819468 13.568 0.435975 12.8154C0.188684 12.3301 0.0901197 11.8134 0.0441946 11.2513C-2.28137e-05 10.7101 -1.23241e-05 10.0457 4.31292e-07 9.24074V5.7587C-1.23241e-05 4.95373 -2.28137e-05 4.28937 0.0441945 3.74818C0.0901197 3.18608 0.188684 2.66937 0.435975 2.18404C0.819468 1.43139 1.43139 0.819468 2.18404 0.435975C2.66937 0.188684 3.18608 0.0901197 3.74817 0.0441945C4.28937 -2.28137e-05 4.95373 -1.23241e-05 5.7587 4.31292e-07ZM3.91104 2.03755C3.47262 2.07337 3.24842 2.1383 3.09202 2.21799C2.7157 2.40973 2.40973 2.7157 2.21799 3.09202C2.1383 3.24842 2.07337 3.47262 2.03755 3.91104C2.00078 4.36113 2 4.94342 2 5.8V9.19944C2 10.056 2.00078 10.6383 2.03755 11.0884C2.07337 11.5268 2.1383 11.751 2.21799 11.9074C2.40973 12.2837 2.7157 12.5897 3.09202 12.7815C3.24842 12.8611 3.47262 12.9261 3.91104 12.9619C4.36113 12.9987 4.94342 12.9994 5.8 12.9994H6.88858L9 15.4632L11.1115 12.9994H12.2C13.0566 12.9994 13.6389 12.9987 14.089 12.9619C14.5274 12.9261 14.7516 12.8611 14.908 12.7815C15.2843 12.5897 15.5903 12.2837 15.782 11.9074C15.8617 11.751 15.9266 11.5268 15.9624 11.0884C15.9992 10.6383 16 10.056 16 9.19944V5.8C16 4.94342 15.9992 4.36113 15.9624 3.91104C15.9266 3.47262 15.8617 3.24842 15.782 3.09202C15.5903 2.7157 15.2843 2.40973 14.908 2.21799C14.7516 2.1383 14.5274 2.07337 14.089 2.03755C13.6389 2.00078 13.0566 2 12.2 2H5.8C4.94342 2 4.36113 2.00078 3.91104 2.03755ZM6.00002 3.58578L9.41423 6.99999L6.00002 10.4142L4.5858 8.99999L6.5858 6.99999L4.5858 4.99999L6.00002 3.58578ZM9.00002 8.99999H13V11H9.00002V8.99999Z" fill="white"/>
</svg>
