<svg width="16" height="17" viewBox="0 0 16 17" fill="none" xmlns="http://www.w3.org/2000/svg">
<path fill-rule="evenodd" clip-rule="evenodd" d="M2.71392 11.2095C4.1144 11.7097 5.98341 12 8 12C10.0166 12 11.8856 11.7097 13.2861 11.2095C13.982 10.961 14.616 10.6417 15.0951 10.2372C15.5695 9.83654 16 9.25369 16 8.5C16 7.94772 15.5523 7.5 15 7.5C14.4525 7.5 14.0077 7.94003 14.0001 8.48574C13.9912 8.50902 13.952 8.58474 13.8048 8.70906C13.5754 8.9027 13.1843 9.12215 12.6134 9.32603C11.4804 9.73067 9.8494 10 8 10C6.1506 10 4.5196 9.73067 3.38659 9.32603C2.81573 9.12215 2.42458 8.9027 2.19525 8.70906C2.04801 8.58474 2.00877 8.50902 1.9999 8.48574C1.99227 7.94003 1.54752 7.5 1 7.5C0.447715 7.5 0 7.94772 0 8.5C0 9.25369 0.430475 9.83654 0.904942 10.2372C1.38405 10.6417 2.01803 10.961 2.71392 11.2095Z" fill="white"/>
<path fill-rule="evenodd" clip-rule="evenodd" d="M2.00633 3.5C2.02321 3.53319 2.07042 3.60366 2.19525 3.70906C2.42458 3.9027 2.81573 4.12215 3.38659 4.32603C4.5196 4.73067 6.1506 5 8 5C9.8494 5 11.4804 4.73067 12.6134 4.32603C13.1843 4.12215 13.5754 3.9027 13.8048 3.70906C13.9296 3.60366 13.9768 3.53319 13.9937 3.5C13.9768 3.46681 13.9296 3.39634 13.8048 3.29094C13.5754 3.0973 13.1843 2.87785 12.6134 2.67397C11.4804 2.26933 9.8494 2 8 2C6.1506 2 4.5196 2.26933 3.38659 2.67397C2.81573 2.87785 2.42458 3.0973 2.19525 3.29094C2.07042 3.39634 2.02321 3.46681 2.00633 3.5ZM14 5.91726C13.7726 6.02403 13.5333 6.12123 13.2861 6.20951C11.8856 6.70968 10.0166 7 8 7C5.98341 7 4.1144 6.70968 2.71392 6.20951C2.46675 6.12123 2.22738 6.02403 2 5.91726V13.486C2.00906 13.5096 2.04856 13.5852 2.19525 13.7091C2.42458 13.9027 2.81573 14.1221 3.38659 14.326C4.5196 14.7307 6.1506 15 8 15C9.8494 15 11.4804 14.7307 12.6134 14.326C13.1843 14.1221 13.5754 13.9027 13.8048 13.7091C13.9514 13.5852 13.9909 13.5096 14 13.486V5.91726ZM16 3.5V13.5C16 14.2537 15.5695 14.8365 15.0951 15.2372C14.616 15.6417 13.982 15.961 13.2861 16.2095C11.8856 16.7097 10.0166 17 8 17C5.98341 17 4.1144 16.7097 2.71392 16.2095C2.01803 15.961 1.38405 15.6417 0.904942 15.2372C0.430475 14.8365 0 14.2537 0 13.5V3.5C0 2.74631 0.430475 2.16346 0.904942 1.76283C1.38405 1.35829 2.01803 1.03902 2.71392 0.790491C4.1144 0.290317 5.98341 0 8 0C10.0166 0 11.8856 0.290317 13.2861 0.790491C13.982 1.03902 14.616 1.35829 15.0951 1.76283C15.5695 2.16346 16 2.74631 16 3.5Z" fill="white"/>
</svg>
