<svg width="18" height="20" viewBox="0 0 18 20" fill="none" xmlns="http://www.w3.org/2000/svg">
<path fill-rule="evenodd" clip-rule="evenodd" d="M9.36893 2.0343C9.12519 1.98857 8.87508 1.98857 8.63134 2.0343C8.38848 2.07986 8.13966 2.19417 7.30072 2.61364L4.10072 4.21364C3.0727 4.72765 2.77787 4.88965 2.5713 5.10056C2.36386 5.31235 2.20611 5.56761 2.10944 5.84786C2.01318 6.12694 2.00013 6.46309 2.00013 7.61246V10.9855C2.00013 12.0212 2.01096 12.3237 2.09164 12.5812C2.17262 12.8396 2.30526 13.0789 2.48151 13.2846C2.65707 13.4895 2.90785 13.659 3.78614 14.2079L6.98614 16.2079C7.97125 16.8236 8.26646 16.9924 8.55696 17.0584C8.84869 17.1247 9.15158 17.1247 9.4433 17.0584C9.73381 16.9924 10.029 16.8236 11.0141 16.2079L14.2141 14.2079C15.0924 13.659 15.3432 13.4895 15.5188 13.2846C15.695 13.0789 15.8276 12.8396 15.9086 12.5812C15.9893 12.3237 16.0001 12.0212 16.0001 10.9855V7.61246C16.0001 6.46309 15.9871 6.12694 15.8908 5.84786C15.7942 5.56761 15.6364 5.31235 15.429 5.10056C15.2224 4.88965 14.9276 4.72765 13.8995 4.21364L10.6995 2.61364C9.86061 2.19417 9.61179 2.07986 9.36893 2.0343ZM8.26254 0.0685931C8.75002 -0.0228644 9.25025 -0.0228644 9.73772 0.0685931C10.291 0.17239 10.8041 0.429339 11.4839 0.769676C11.5201 0.787812 11.5568 0.806184 11.594 0.824783L14.794 2.42478C14.84 2.44782 14.8855 2.47051 14.9304 2.49291C15.7604 2.90723 16.3862 3.21957 16.8578 3.70112C17.2727 4.12471 17.5882 4.63522 17.7815 5.19571C18.0013 5.83292 18.0008 6.53229 18.0002 7.45999C18.0002 7.51013 18.0001 7.56095 18.0001 7.61246V10.9855C18.0001 11.0317 18.0002 11.0772 18.0002 11.1221C18.0007 11.96 18.0011 12.5921 17.8171 13.1792C17.6552 13.6961 17.3899 14.1747 17.0374 14.5861C16.637 15.0532 16.1008 15.3879 15.39 15.8315C15.3519 15.8553 15.3133 15.8794 15.2741 15.9039L12.0741 17.9039C12.03 17.9315 11.9864 17.9588 11.9434 17.9857C11.1488 18.4831 10.5498 18.858 9.88647 19.0087C9.30302 19.1413 8.69725 19.1413 8.11379 19.0087C7.45042 18.858 6.85146 18.4831 6.05687 17.9857C6.01388 17.9588 5.97032 17.9315 5.92614 17.9039L2.72614 15.9039C2.68701 15.8794 2.64839 15.8553 2.61027 15.8315C1.89951 15.3879 1.36323 15.0532 0.962877 14.5861C0.610387 14.1747 0.345111 13.6961 0.183139 13.1792C-0.000827938 12.5921 -0.000438237 11.96 7.80586e-05 11.1221C0.000105715 11.0772 0.000133729 11.0317 0.000133729 10.9855V7.61246C0.000133729 7.56095 9.93971e-05 7.51014 6.55416e-05 7.45999C-0.000560903 6.53229 -0.00103322 5.83292 0.218753 5.19571C0.412082 4.63522 0.727595 4.12471 1.14246 3.70112C1.6141 3.21958 2.23985 2.90723 3.06989 2.49291C3.11476 2.47051 3.16022 2.44782 3.20629 2.42478L6.4063 0.824783C6.44349 0.806184 6.48019 0.78781 6.51641 0.769674C7.19612 0.429339 7.7093 0.17239 8.26254 0.0685931Z" fill="#EA6C0A"/>
<path fill-rule="evenodd" clip-rule="evenodd" d="M1.10571 4.69868C1.3527 4.20471 1.95337 4.00448 2.44735 4.25147L5.44735 5.75147C5.94133 5.99846 6.14155 6.59913 5.89456 7.09311C5.64757 7.58709 5.0469 7.78731 4.55292 7.54033L1.55292 6.04033C1.05894 5.79334 0.858717 5.19266 1.10571 4.69868ZM16.8946 4.69868C17.1416 5.19266 16.9413 5.79334 16.4473 6.04033L13.4473 7.54033C12.9534 7.78731 12.3527 7.58709 12.1057 7.09311C11.8587 6.59913 12.0589 5.99846 12.5529 5.75147L15.5529 4.25147C16.0469 4.00448 16.6476 4.20471 16.8946 4.69868ZM9.00013 14.6459C9.55242 14.6459 10.0001 15.0936 10.0001 15.6459V17.6459C10.0001 18.1982 9.55242 18.6459 9.00013 18.6459C8.44785 18.6459 8.00013 18.1982 8.00013 17.6459V15.6459C8.00013 15.0936 8.44785 14.6459 9.00013 14.6459Z" fill="#EA6C0A"/>
<path fill-rule="evenodd" clip-rule="evenodd" d="M9.00013 6.0459C9.25839 6.0459 9.48768 6.21116 9.56934 6.45616L10.2245 8.42156L12.1899 9.07669C12.4349 9.15836 12.6001 9.38764 12.6001 9.6459C12.6001 9.90416 12.4349 10.1334 12.1899 10.2151L10.2245 10.8702L9.56934 12.8356C9.48768 13.0806 9.25839 13.2459 9.00013 13.2459C8.74188 13.2459 8.51259 13.0806 8.43092 12.8356L7.77579 10.8702L5.8104 10.2151C5.56539 10.1334 5.40013 9.90416 5.40013 9.6459C5.40013 9.38764 5.56539 9.15836 5.8104 9.07669L7.77579 8.42156L8.43092 6.45616C8.51259 6.21116 8.74188 6.0459 9.00013 6.0459Z" fill="#EA6C0A"/>
</svg>
