<svg width="24" height="24" viewBox="0 0 24 24" fill="none" xmlns="http://www.w3.org/2000/svg">
<path fill-rule="evenodd" clip-rule="evenodd" d="M12.3688 4.38842C12.1251 4.34269 11.875 4.34269 11.6312 4.38842C11.3884 4.43399 11.1395 4.5483 10.3006 4.96776L7.1006 6.56776C6.07257 7.08178 5.77775 7.24378 5.57118 7.45469C5.36374 7.66648 5.20599 7.92173 5.10932 8.20198C5.01306 8.48107 5.00001 8.81722 5.00001 9.96659V13.3396C5.00001 14.3754 5.01084 14.6779 5.09151 14.9353C5.1725 15.1938 5.30514 15.4331 5.48138 15.6387C5.65695 15.8436 5.90773 16.0131 6.78602 16.562L9.98602 18.562C10.9711 19.1777 11.2663 19.3466 11.5568 19.4126C11.8486 19.4789 12.1515 19.4789 12.4432 19.4126C12.7337 19.3466 13.0289 19.1777 14.014 18.562L17.214 16.562C18.0923 16.0131 18.3431 15.8436 18.5186 15.6387C18.6949 15.4331 18.8275 15.1938 18.9085 14.9353C18.9892 14.6779 19 14.3754 19 13.3396V9.96659C19 8.81722 18.987 8.48107 18.8907 8.20198C18.794 7.92173 18.6363 7.66648 18.4288 7.45469C18.2223 7.24378 17.9274 7.08178 16.8994 6.56776L13.6994 4.96776C12.8605 4.5483 12.6117 4.43399 12.3688 4.38842ZM11.2624 2.42272C11.7499 2.33126 12.2501 2.33126 12.7376 2.42272C13.2908 2.52652 13.804 2.78347 14.4837 3.1238C14.52 3.14194 14.5567 3.16031 14.5939 3.17891L17.7939 4.77891C17.8399 4.80194 17.8854 4.82464 17.9303 4.84703C18.7603 5.26135 19.386 5.5737 19.8577 6.05525C20.2726 6.47883 20.5881 6.98934 20.7814 7.54984C21.0012 8.18704 21.0007 8.88641 21.0001 9.81411C21 9.86426 21 9.91508 21 9.96659V13.3396C21 13.3858 21 13.4313 21.0001 13.4762C21.0006 14.3141 21.001 14.9462 20.817 15.5333C20.655 16.0502 20.3898 16.5289 20.0373 16.9402C19.6369 17.4073 19.1006 17.7421 18.3899 18.1857C18.3518 18.2095 18.3131 18.2336 18.274 18.258L15.074 20.258C15.0298 20.2856 14.9863 20.3129 14.9433 20.3398C14.1487 20.8372 13.5497 21.2121 12.8864 21.3628C12.3029 21.4954 11.6971 21.4954 11.1137 21.3628C10.4503 21.2121 9.85134 20.8372 9.05675 20.3398C9.01376 20.3129 8.9702 20.2856 8.92602 20.258L5.72602 18.258C5.68689 18.2336 5.64827 18.2095 5.61015 18.1857C4.89939 17.7421 4.36311 17.4073 3.96276 16.9402C3.61026 16.5289 3.34499 16.0502 3.18302 15.5333C2.99905 14.9462 2.99944 14.3141 2.99996 13.4762C2.99998 13.4313 3.00001 13.3858 3.00001 13.3396V9.96659C3.00001 9.91508 2.99998 9.86427 2.99994 9.81412C2.99932 8.88642 2.99884 8.18704 3.21863 7.54984C3.41196 6.98934 3.72747 6.47883 4.14234 6.05525C4.61398 5.5737 5.23973 5.26135 6.06977 4.84704C6.11464 4.82464 6.1601 4.80194 6.20617 4.77891L9.40617 3.17891C9.44337 3.16031 9.48007 3.14194 9.51629 3.1238C10.196 2.78346 10.7092 2.52652 11.2624 2.42272Z" fill="white"/>
<path fill-rule="evenodd" clip-rule="evenodd" d="M4.10558 7.05281C4.35257 6.55883 4.95325 6.35861 5.44723 6.6056L8.44723 8.1056C8.9412 8.35259 9.14143 8.95326 8.89444 9.44724C8.64745 9.94122 8.04678 10.1414 7.5528 9.89445L4.5528 8.39445C4.05882 8.14746 3.8586 7.54679 4.10558 7.05281ZM19.8944 7.05281C20.1414 7.54679 19.9412 8.14746 19.4472 8.39445L16.4472 9.89445C15.9532 10.1414 15.3526 9.94122 15.1056 9.44724C14.8586 8.95326 15.0588 8.35259 15.5528 8.1056L18.5528 6.6056C19.0468 6.35861 19.6475 6.55883 19.8944 7.05281ZM12 17C12.5523 17 13 17.4477 13 18V20C13 20.5523 12.5523 21 12 21C11.4477 21 11 20.5523 11 20V18C11 17.4477 11.4477 17 12 17Z" fill="white"/>
<path fill-rule="evenodd" clip-rule="evenodd" d="M12 8.40002C12.2583 8.40002 12.4876 8.56528 12.5692 8.81029L13.2244 10.7757L15.1897 11.4308C15.4348 11.5125 15.6 11.7418 15.6 12C15.6 12.2583 15.4348 12.4876 15.1897 12.5692L13.2244 13.2244L12.5692 15.1898C12.4876 15.4348 12.2583 15.6 12 15.6C11.7418 15.6 11.5125 15.4348 11.4308 15.1898L10.7757 13.2244L8.81027 12.5692C8.56527 12.4876 8.40001 12.2583 8.40001 12C8.40001 11.7418 8.56527 11.5125 8.81027 11.4308L10.7757 10.7757L11.4308 8.81029C11.5125 8.56528 11.7418 8.40002 12 8.40002Z" fill="white"/>
</svg>
