<svg width="18" height="18" viewBox="0 0 18 18" fill="none" xmlns="http://www.w3.org/2000/svg">
<path fill-rule="evenodd" clip-rule="evenodd" d="M7.87626 0.0695791C8.2448 0.0236224 8.61987 0 9 0C9.38013 0 9.7552 0.0236224 10.1237 0.0695791L9.87626 2.05421C9.58961 2.01846 9.29719 2 9 2C8.70281 2 8.41038 2.01846 8.12374 2.05421L7.87626 0.0695791ZM0 9C0 8.61987 0.0236224 8.2448 0.0695791 7.87626L2.05421 8.12374C2.01846 8.41038 2 8.70281 2 9C2 9.29719 2.01846 9.58961 2.05421 9.87626L0.0695791 10.1237C0.0236224 9.7552 0 9.38013 0 9ZM16 9C16 8.7028 15.9815 8.41038 15.9458 8.12374L17.9304 7.87626C17.9764 8.2448 18 8.61987 18 9C18 9.38013 17.9764 9.75519 17.9304 10.1237L15.9458 9.87626C15.9815 9.58961 16 9.29719 16 9ZM8.12374 15.9458C8.41038 15.9815 8.7028 16 9 16C9.29719 16 9.58961 15.9815 9.87626 15.9458L10.1237 17.9304C9.75519 17.9764 9.38013 18 9 18C8.61987 18 8.2448 17.9764 7.87626 17.9304L8.12374 15.9458Z" fill="#7E7E7E"/>
<path fill-rule="evenodd" clip-rule="evenodd" d="M3.5 2C2.67157 2 2 2.67157 2 3.5C2 4.32843 2.67157 5 3.5 5C4.32843 5 5 4.32843 5 3.5C5 2.67157 4.32843 2 3.5 2ZM0 3.5C0 1.567 1.567 0 3.5 0C5.433 0 7 1.567 7 3.5C7 5.433 5.433 7 3.5 7C1.567 7 0 5.433 0 3.5Z" fill="#7E7E7E"/>
<path fill-rule="evenodd" clip-rule="evenodd" d="M3.5 13C2.67157 13 2 13.6716 2 14.5C2 15.3284 2.67157 16 3.5 16C4.32843 16 5 15.3284 5 14.5C5 13.6716 4.32843 13 3.5 13ZM0 14.5C0 12.567 1.567 11 3.5 11C5.433 11 7 12.567 7 14.5C7 16.433 5.433 18 3.5 18C1.567 18 0 16.433 0 14.5Z" fill="#7E7E7E"/>
<path fill-rule="evenodd" clip-rule="evenodd" d="M14.5 13C13.6716 13 13 13.6716 13 14.5C13 15.3284 13.6716 16 14.5 16C15.3284 16 16 15.3284 16 14.5C16 13.6716 15.3284 13 14.5 13ZM11 14.5C11 12.567 12.567 11 14.5 11C16.433 11 18 12.567 18 14.5C18 16.433 16.433 18 14.5 18C12.567 18 11 16.433 11 14.5Z" fill="#7E7E7E"/>
<path fill-rule="evenodd" clip-rule="evenodd" d="M14.5 2C13.6716 2 13 2.67157 13 3.5C13 4.32843 13.6716 5 14.5 5C15.3284 5 16 4.32843 16 3.5C16 2.67157 15.3284 2 14.5 2ZM11 3.5C11 1.567 12.567 0 14.5 0C16.433 0 18 1.567 18 3.5C18 5.433 16.433 7 14.5 7C12.567 7 11 5.433 11 3.5Z" fill="#7E7E7E"/>
</svg>
